<svg width="703" height="197" viewBox="0 0 703 197" fill="none" xmlns="http://www.w3.org/2000/svg">
<g opacity="0.744856" filter="url(#filter0_f)">
<g opacity="0.744856">
<g opacity="0.744856">
<path opacity="0.744856" d="M63.1394 57.5378C63.1394 57.5378 70.6353 66.9718 68.8463 57.3088C67.0553 47.6428 52.7193 28.7578 45.4963 33.3288C38.2693 37.8988 41.9223 41.6629 46.4593 44.0929C51.0003 46.5209 59.9454 52.6748 63.1394 57.5378V57.5378Z" fill="black"/>
<path opacity="0.744856" d="M101.258 42.8779C101.258 42.8779 99.7683 55.6479 105.729 47.0189C111.684 38.3899 115.167 13.3299 106.274 11.3119C97.3794 9.29387 97.2843 14.8859 98.8663 20.1439C100.449 25.4019 102.531 36.8019 101.258 42.8779V42.8779Z" fill="black"/>
<path opacity="0.744856" d="M143.359 47.3059C143.359 47.3059 133.816 59.0049 145.164 54.2279C156.512 49.4469 175.791 26.8389 168.258 19.2219C160.727 11.6069 157.098 17.0849 155.348 23.2899C153.592 29.4969 148.453 42.0929 143.359 47.3059Z" fill="black"/>
<path opacity="0.744856" d="M173.834 77.6408C173.834 77.6408 158.922 81.7799 171.248 84.4999C183.574 87.2149 213.088 79.7129 211.297 68.8789C209.508 58.0459 203.227 60.4819 198.084 64.6379C192.941 68.7909 181.184 76.2928 173.834 77.6408V77.6408Z" fill="black"/>
<path opacity="0.744856" d="M39.1433 86.3069C39.1433 86.3069 49.0554 89.6019 43.1704 83.4379C37.2874 77.2699 17.9204 70.3659 14.8484 77.1139C11.7744 83.8579 16.2073 84.854 20.6573 84.462C25.1003 84.071 34.5163 84.2949 39.1433 86.3069V86.3069Z" fill="black"/>
<path opacity="0.744856" d="M32.0943 118.137C32.0943 118.137 40.4554 117.744 34.2804 114.826C28.1004 111.912 11.6243 112.324 11.2683 118.256C10.9123 124.188 14.5203 123.654 17.7313 122.082C20.9413 120.506 28.0493 117.963 32.0943 118.137V118.137Z" fill="black"/>
<path opacity="0.744856" d="M39.4304 146.217C39.4304 146.217 44.3874 141.934 39.1764 143.121C33.9694 144.31 24.0244 152.519 26.6704 156.346C29.3094 160.17 31.2774 158.102 32.4944 155.582C33.7134 153.061 36.8554 148.063 39.4304 146.217Z" fill="black"/>
</g>
</g>
<path opacity="0.744856" d="M238.818 90.6879C239.976 90.6879 241.136 90.5919 242.298 90.3989C243.456 90.2079 244.489 89.8659 245.398 89.3719C246.306 88.8799 247.05 88.1809 247.63 87.2759C248.208 86.3739 248.501 85.2099 248.501 83.7839C248.501 82.6879 248.222 81.7429 247.667 80.9479C247.11 80.1549 246.405 79.4279 245.55 78.7719C244.691 78.1139 243.734 77.5119 242.675 76.9629C241.614 76.4159 240.556 75.8129 239.497 75.1539C238.134 74.2789 236.849 73.3448 235.64 72.3608C234.429 71.3748 233.396 70.2648 232.536 69.0328C231.679 67.7988 230.999 66.4299 230.495 64.9229C229.989 63.4169 229.739 61.6769 229.739 59.7059C229.739 57.1859 230.18 54.8448 231.061 52.6788C231.944 50.5148 233.256 48.6399 234.995 47.0499C236.735 45.4619 238.917 44.2139 241.54 43.3119C244.161 42.4079 247.239 41.9569 250.769 41.9569C252.382 41.9569 253.947 42.1068 255.46 42.4078C256.973 42.7088 258.382 43.0798 259.694 43.5168C261.005 43.9558 262.204 44.4619 263.288 45.0369C264.372 45.6129 265.294 46.1759 266.048 46.7229L261.132 56.1719C259.872 55.1329 258.335 54.2538 256.519 53.5428C254.703 52.8318 252.736 52.4749 250.619 52.4749C249.457 52.4749 248.349 52.5859 247.289 52.8029C246.23 53.0239 245.297 53.3929 244.49 53.9119C243.683 54.4329 243.041 55.1029 242.562 55.9259C242.082 56.7479 241.843 57.7639 241.843 58.9669C241.843 60.0649 242.031 60.9809 242.409 61.7209C242.788 62.4589 243.28 63.1039 243.884 63.6509C244.489 64.1999 245.196 64.6939 246.003 65.1309C246.81 65.5679 247.667 66.0349 248.575 66.5269C250.137 67.4039 251.651 68.3349 253.114 69.3209C254.575 70.3069 255.86 71.4438 256.973 72.7308C258.08 74.0198 258.963 75.4828 259.619 77.1268C260.273 78.7718 260.601 80.7149 260.601 82.9609C260.601 86.0839 260.072 88.7969 259.013 91.0979C257.954 93.3989 256.466 95.3169 254.55 96.8499C252.632 98.3849 250.351 99.5219 247.702 100.26C245.056 101 242.118 101.369 238.89 101.369C236.773 101.369 234.792 101.178 232.951 100.795C231.111 100.41 229.447 99.9589 227.961 99.4399C226.471 98.9189 225.186 98.3579 224.102 97.7539C223.016 97.1519 222.147 96.6038 221.493 96.1108L226.485 86.3298C227.09 86.7688 227.821 87.2339 228.678 87.7279C229.535 88.2199 230.506 88.6869 231.59 89.1239C232.674 89.5629 233.822 89.9329 235.033 90.2329C236.244 90.5369 237.506 90.6879 238.818 90.6879V90.6879Z" fill="black"/>
<path opacity="0.744856" d="M279.932 101.369C277.258 101.369 274.938 100.931 272.973 100.055C271.006 99.1799 269.379 97.9458 268.092 96.3558C266.807 94.7698 265.834 92.8929 265.182 90.7269C264.526 88.5649 264.196 86.1658 264.196 83.5378C264.196 80.2508 264.69 76.9639 265.673 73.6769C266.656 70.3899 268.107 67.4319 270.023 64.8009C271.939 62.1719 274.285 60.0239 277.058 58.3499C279.831 56.6799 283.009 55.8439 286.591 55.8439C289.21 55.8439 291.519 56.2828 293.511 57.1578C295.503 58.0348 297.142 59.2669 298.429 60.8569C299.714 62.4469 300.685 64.3218 301.341 66.4858C301.995 68.6508 302.323 71.0459 302.323 73.6759C302.323 76.9629 301.844 80.2499 300.885 83.5369C299.928 86.8239 298.514 89.7829 296.649 92.4119C294.784 95.0429 292.452 97.1929 289.653 98.8629C286.854 100.533 283.613 101.369 279.932 101.369V101.369ZM285.529 66.1979C283.865 66.1979 282.402 66.7179 281.142 67.7579C279.878 68.8009 278.82 70.1149 277.964 71.7029C277.107 73.2929 276.462 75.0309 276.036 76.9219C275.604 78.8129 275.391 80.6079 275.391 82.3049C275.391 85.0979 275.793 87.2499 276.602 88.7559C277.409 90.2619 278.872 91.0159 280.991 91.0159C282.653 91.0159 284.116 90.4949 285.376 89.4539C286.638 88.4149 287.696 87.0999 288.556 85.5109C289.411 83.9209 290.056 82.1809 290.484 80.2919C290.912 78.4009 291.127 76.6079 291.127 74.9089C291.127 72.1139 290.725 69.9659 289.918 68.4579C289.109 66.9499 287.646 66.1979 285.529 66.1979Z" fill="black"/>
<path opacity="0.744856" d="M342.104 46.2279L353.831 44.2568L350.956 56.9929H365.136L362.866 67.0179H348.762L345.434 82.1399C345.131 83.3999 344.942 84.5779 344.866 85.6729C344.79 86.7679 344.915 87.7139 345.245 88.5089C345.573 89.3019 346.14 89.9189 346.948 90.3569C347.753 90.7959 348.862 91.0149 350.276 91.0149C351.485 91.0149 352.659 90.8919 353.792 90.6439C354.929 90.3979 356.073 90.0559 357.235 89.6169L358.067 98.9858C356.553 99.5898 354.915 100.109 353.151 100.547C351.383 100.986 349.292 101.205 346.872 101.205C343.392 101.205 340.692 100.643 338.776 99.5209C336.86 98.3979 335.499 96.8629 334.692 94.9169C333.885 92.9739 333.532 90.7408 333.633 88.2198C333.733 85.6998 334.086 83.0419 334.692 80.2489L342.104 46.2279V46.2279Z" fill="black"/>
<path opacity="0.744856" d="M388.182 74.9078C387.221 77.1558 386.151 79.4409 384.967 81.7689C383.781 84.0989 382.569 86.3729 381.334 88.5909C380.098 90.8099 378.9 92.9189 377.742 94.9169C376.58 96.9189 375.549 98.6849 374.64 100.218H365.863C365.461 97.9169 365.045 95.1789 364.617 92.0009C364.187 88.8229 363.771 85.3579 363.367 81.6049C362.963 77.8529 362.597 73.8798 362.271 69.6888C361.941 65.4988 361.705 61.2659 361.552 56.9929H372.597C372.597 58.9659 372.609 61.1018 372.634 63.4028C372.659 65.7038 372.71 68.0879 372.784 70.5519C372.86 73.0189 372.973 75.5359 373.126 78.1129C373.276 80.6889 373.478 83.2359 373.73 85.7559C374.992 83.4549 376.24 81.0589 377.476 78.5649C378.71 76.0729 379.896 73.5809 381.031 71.0859C382.166 68.5939 383.224 66.1439 384.209 63.7319C385.191 61.3219 386.061 59.0759 386.82 56.9939H396.199C396.199 60.9389 396.261 65.3489 396.388 70.2249C396.513 75.1019 396.829 80.2779 397.333 85.7559C398.696 83.2909 399.954 80.7559 401.116 78.1539C402.276 75.5519 403.346 72.9898 404.331 70.4698C405.313 67.9498 406.196 65.5389 406.977 63.2389C407.76 60.9379 408.452 58.8559 409.057 56.9929H421.012C420.002 59.7329 418.805 62.8149 417.418 66.2389C416.031 69.6619 414.43 73.2629 412.615 77.0449C410.799 80.8239 408.754 84.6879 406.486 88.6329C404.216 92.5759 401.693 96.4399 398.92 100.219H390.147C389.54 95.7289 389.086 91.4259 388.786 87.3169C388.482 83.2089 388.281 79.0718 388.182 74.9078V74.9078Z" fill="black"/>
<path opacity="0.744856" d="M451.492 81.5649C450.785 84.6879 450.584 87.8249 450.887 90.9749C451.19 94.1249 451.768 96.9319 452.627 99.3969L442.566 100.959C442.263 100.301 441.984 99.6719 441.734 99.0679C441.48 98.4659 441.228 97.7809 440.976 97.0129C439.564 98.2749 437.999 99.3139 436.287 100.136C434.572 100.958 432.656 101.368 430.537 101.368C428.016 101.368 425.859 100.888 424.07 99.9299C422.279 98.9729 420.816 97.6838 419.681 96.0688C418.546 94.4518 417.726 92.5609 417.222 90.3969C416.718 88.2329 416.466 85.9179 416.466 83.4539C416.466 79.6729 417.083 76.1119 418.32 72.7699C419.557 69.4279 421.271 66.5109 423.465 64.0189C425.659 61.5269 428.242 59.5678 431.219 58.1418C434.194 56.7178 437.422 56.0049 440.901 56.0049C441.354 56.0049 442.151 56.0339 443.284 56.0869C444.419 56.1439 445.718 56.2669 447.18 56.4579C448.642 56.6489 450.182 56.9639 451.793 57.4009C453.408 57.8399 454.945 58.4439 456.41 59.2119L451.492 81.5649V81.5649ZM443.625 66.4449C442.969 66.3359 442.375 66.2539 441.848 66.1989C441.317 66.1439 440.676 66.1169 439.918 66.1169C438.203 66.1169 436.602 66.5819 435.115 67.5129C433.625 68.4449 432.326 69.6629 431.219 71.1709C430.11 72.6789 429.239 74.4149 428.608 76.3879C427.977 78.3609 427.663 80.4149 427.663 82.5519C427.663 85.1809 428.067 87.2649 428.874 88.7979C429.681 90.3309 431.167 91.0989 433.337 91.0989C434.497 91.0989 435.542 90.8529 436.478 90.3589C437.41 89.8669 438.408 89.0449 439.464 87.8939C439.566 86.5249 439.73 85.0848 439.956 83.5798C440.185 82.0738 440.423 80.6909 440.677 79.4299L443.625 66.4449V66.4449Z" fill="black"/>
<path opacity="0.744856" d="M485.617 67.5118C484.605 67.2398 483.611 66.9779 482.629 66.7319C481.645 66.4859 480.193 66.3629 478.277 66.3629C477.57 66.3629 476.791 66.4309 475.933 66.5679C475.075 66.7049 474.371 66.8549 473.814 67.0189L466.478 100.219H455.207L464.285 59.2939C466.451 58.5279 468.885 57.8018 471.584 57.1158C474.279 56.4318 477.318 56.0889 480.699 56.0889C481.959 56.0889 483.357 56.2138 484.898 56.4598C486.435 56.7058 487.785 57.1049 488.943 57.6509L485.617 67.5118V67.5118Z" fill="black"/>
<path opacity="0.744856" d="M485.104 83.2909C485.104 79.7849 485.67 76.3869 486.805 73.0999C487.94 69.8129 489.539 66.8959 491.608 64.3489C493.677 61.8019 496.186 59.7469 499.135 58.1849C502.086 56.6239 505.35 55.8429 508.934 55.8429C510.696 55.8429 512.336 56.1179 513.85 56.6649C515.362 57.2139 516.686 58.0069 517.821 59.0479C518.956 60.0889 519.837 61.3639 520.467 62.8699C521.097 64.3759 521.414 66.0889 521.414 68.0059C521.414 71.0739 520.781 73.6759 519.521 75.8129C518.261 77.9479 516.507 79.6879 514.265 81.0299C512.021 82.3739 509.359 83.3459 506.283 83.9479C503.207 84.5519 499.855 84.8519 496.222 84.8519C496.576 87.1529 497.345 88.7839 498.529 89.7429C499.715 90.7019 501.593 91.1809 504.166 91.1809C505.779 91.1809 507.42 91.0309 509.082 90.7279C510.748 90.4289 512.309 89.9759 513.771 89.3729L514.605 98.9879C513.191 99.5919 511.39 100.138 509.195 100.633C507.004 101.125 504.621 101.371 502.047 101.371C498.92 101.371 496.285 100.891 494.143 99.9329C491.998 98.9759 490.258 97.6729 488.924 96.0309C487.586 94.3859 486.615 92.4689 486.01 90.2769C485.405 88.0849 485.104 85.7559 485.104 83.2909V83.2909ZM507.115 65.5399C504.545 65.5399 502.287 66.5399 500.345 68.5389C498.402 70.5389 497.13 73.1819 496.525 76.4709C499.652 76.3619 502.173 76.0729 504.089 75.6079C506.005 75.1429 507.495 74.5809 508.552 73.9219C509.611 73.2639 510.318 72.5529 510.671 71.7849C511.023 71.0189 511.2 70.2519 511.2 69.4839C511.201 66.8549 509.84 65.5399 507.115 65.5399V65.5399Z" fill="black"/>
<g opacity="0.744856">
<path opacity="0.744856" d="M320.707 67.0189H320.705L320.533 67.8009L320.707 67.0189Z" fill="black"/>
<path opacity="0.744856" d="M336.213 56.9929H326.354L324.168 67.0189H333.943L336.213 56.9929Z" fill="black"/>
<path opacity="0.744856" d="M338.672 37.2299C336.981 36.7099 335.002 36.4489 332.733 36.4489C326.782 36.4489 322.167 38.0388 318.889 41.2148C315.61 44.3948 313.34 48.8868 312.08 54.6938L304.215 90.5228C303.809 92.4428 303.293 94.5089 302.662 96.7279C302.215 98.2999 301.683 99.8408 301.111 101.371H312.435C313.72 97.6828 314.941 93.2298 316.091 87.9758L320.478 68.0459L320.533 67.8019L320.705 67.0199L322.92 56.9949H322.897L323.35 54.8579C323.854 52.5569 324.776 50.6408 326.112 49.1058C327.446 47.5728 329.505 46.8049 332.276 46.8049C333.286 46.8049 334.381 46.9278 335.567 47.1738C336.753 47.4198 337.799 47.7908 338.708 48.2828L342.489 38.6678C341.631 38.2298 340.359 37.7509 338.67 37.2299H338.672Z" fill="black"/>
</g>
<g opacity="0.744856">
<path opacity="0.744856" d="M262.584 170.688L275.141 113.739H309.108L306.688 124.341H284.521L281.873 136.503H301.467L299.123 147.105H279.529L274.308 170.689H262.584V170.688Z" fill="black"/>
<path opacity="0.744856" d="M331.287 137.981C330.277 137.708 329.283 137.448 328.299 137.202C327.315 136.954 325.865 136.831 323.949 136.831C323.242 136.831 322.461 136.901 321.603 137.036C320.746 137.175 320.041 137.325 319.484 137.489L312.148 170.688H300.877L309.955 129.764C312.123 128.998 314.555 128.272 317.254 127.586C319.951 126.9 322.99 126.559 326.369 126.559C327.629 126.559 329.029 126.682 330.568 126.928C332.105 127.174 333.455 127.573 334.615 128.119L331.287 137.981V137.981Z" fill="black"/>
<path opacity="0.744856" d="M330.773 153.76C330.773 150.254 331.339 146.856 332.474 143.569C333.609 140.282 335.208 137.366 337.279 134.817C339.345 132.27 341.855 130.215 344.804 128.655C347.755 127.093 351.019 126.313 354.603 126.313C356.367 126.313 358.005 126.586 359.519 127.133C361.033 127.682 362.357 128.477 363.494 129.518C364.627 130.559 365.508 131.832 366.14 133.338C366.769 134.846 367.085 136.557 367.085 138.475C367.085 141.543 366.454 144.145 365.192 146.282C363.932 148.419 362.178 150.159 359.934 151.501C357.69 152.843 355.03 153.815 351.954 154.419C348.876 155.021 345.522 155.321 341.892 155.321C342.246 157.622 343.015 159.253 344.201 160.212C345.385 161.171 347.263 161.65 349.836 161.65C351.451 161.65 353.09 161.5 354.752 161.199C356.418 160.898 357.981 160.447 359.443 159.842L360.275 169.457C358.863 170.061 357.06 170.607 354.867 171.102C352.674 171.594 350.291 171.84 347.719 171.84C344.592 171.84 341.957 171.36 339.813 170.402C337.669 169.444 335.93 168.142 334.594 166.5C333.256 164.855 332.287 162.939 331.682 160.748C331.074 158.555 330.773 156.225 330.773 153.76V153.76ZM352.785 136.01C350.215 136.01 347.955 137.01 346.017 139.008C344.074 141.01 342.802 143.653 342.195 146.94C345.322 146.831 347.843 146.542 349.761 146.077C351.675 145.612 353.165 145.05 354.222 144.391C355.283 143.735 355.988 143.022 356.341 142.254C356.693 141.488 356.87 140.721 356.87 139.953C356.871 137.324 355.512 136.01 352.785 136.01V136.01Z" fill="black"/>
<path opacity="0.744856" d="M367.229 153.76C367.229 150.254 367.795 146.856 368.93 143.569C370.065 140.282 371.664 137.366 373.733 134.817C375.801 132.27 378.313 130.215 381.26 128.655C384.211 127.093 387.477 126.313 391.059 126.313C392.823 126.313 394.461 126.586 395.975 127.133C397.489 127.682 398.811 128.477 399.948 129.518C401.081 130.559 401.962 131.832 402.594 133.338C403.223 134.846 403.539 136.557 403.539 138.475C403.539 141.543 402.908 144.145 401.646 146.282C400.386 148.419 398.634 150.159 396.39 151.501C394.146 152.843 391.486 153.815 388.41 154.419C385.332 155.021 381.98 155.321 378.348 155.321C378.702 157.622 379.471 159.253 380.657 160.212C381.841 161.171 383.719 161.65 386.292 161.65C387.905 161.65 389.546 161.5 391.21 161.199C392.874 160.898 394.437 160.447 395.899 159.842L396.731 169.457C395.319 170.061 393.516 170.607 391.323 171.102C389.13 171.594 386.747 171.84 384.175 171.84C381.048 171.84 378.413 171.36 376.271 170.402C374.125 169.445 372.386 168.142 371.05 166.5C369.712 164.855 368.741 162.939 368.136 160.748C367.531 158.557 367.229 156.225 367.229 153.76V153.76ZM389.242 136.01C386.67 136.01 384.412 137.01 382.471 139.008C380.53 141.01 379.256 143.653 378.651 146.94C381.778 146.831 384.299 146.542 386.217 146.077C388.131 145.612 389.621 145.05 390.678 144.391C391.739 143.735 392.444 143.022 392.797 142.254C393.149 141.488 393.328 140.721 393.328 139.953C393.328 137.324 391.965 136.01 389.242 136.01V136.01Z" fill="black"/>
<path opacity="0.744856" d="M460.338 171.838C457.662 171.838 455.344 171.4 453.377 170.524C451.41 169.649 449.783 168.417 448.498 166.827C447.211 165.239 446.238 163.362 445.586 161.198C444.93 159.034 444.602 156.636 444.602 154.007C444.602 150.72 445.094 147.433 446.077 144.146C447.061 140.859 448.511 137.9 450.429 135.271C452.343 132.642 454.689 130.492 457.464 128.82C460.235 127.15 463.413 126.314 466.995 126.314C469.616 126.314 471.923 126.752 473.917 127.628C475.907 128.505 477.546 129.737 478.835 131.325C480.12 132.915 481.089 134.792 481.745 136.954C482.399 139.12 482.729 141.515 482.729 144.145C482.729 147.432 482.249 150.719 481.291 154.006C480.332 157.293 478.92 160.252 477.055 162.881C475.19 165.512 472.856 167.662 470.057 169.332C467.258 171.002 464.018 171.838 460.338 171.838V171.838ZM465.936 136.666C464.27 136.666 462.807 137.187 461.547 138.228C460.285 139.269 459.227 140.583 458.369 142.171C457.512 143.761 456.869 145.499 456.441 147.39C456.011 149.281 455.796 151.076 455.796 152.773C455.796 155.568 456.2 157.718 457.007 159.224C457.814 160.732 459.277 161.484 461.396 161.484C463.06 161.484 464.521 160.963 465.783 159.922C467.043 158.883 468.101 157.568 468.961 155.979C469.816 154.391 470.461 152.651 470.889 150.76C471.317 148.869 471.532 147.076 471.532 145.377C471.532 142.582 471.13 140.434 470.323 138.926C469.516 137.42 468.051 136.666 465.936 136.666Z" fill="black"/>
<path opacity="0.744856" d="M491.32 129.434C492.177 129.161 493.097 128.846 494.082 128.489C495.066 128.134 496.174 127.805 497.41 127.505C498.644 127.204 500.031 126.958 501.57 126.765C503.109 126.574 504.884 126.478 506.904 126.478C509.324 126.478 511.33 126.806 512.918 127.464C514.506 128.12 515.955 129.107 517.268 130.421C519.133 129.271 520.987 128.325 522.829 127.587C524.669 126.847 526.825 126.478 529.296 126.478C531.667 126.478 533.696 126.82 535.386 127.505C537.076 128.19 538.476 129.175 539.585 130.462C540.694 131.751 541.501 133.284 542.005 135.066C542.509 136.845 542.763 138.804 542.763 140.941C542.763 141.927 542.699 142.968 542.574 144.064C542.447 145.16 542.258 146.255 542.006 147.351L536.861 170.689H525.59L530.584 147.843C530.734 147.077 530.898 146.214 531.074 145.255C531.252 144.298 531.34 143.353 531.34 142.419C531.34 140.888 531.012 139.558 530.358 138.435C529.702 137.312 528.415 136.749 526.499 136.749C525.44 136.749 524.431 136.954 523.474 137.366C522.515 137.776 521.658 138.202 520.902 138.639C521.004 139.078 521.054 139.489 521.054 139.871C521.054 140.253 521.054 140.611 521.054 140.939C521.054 141.925 520.99 142.966 520.865 144.062C520.738 145.158 520.549 146.253 520.297 147.349L515.154 170.687H503.883L508.875 147.841C509.027 147.075 509.189 146.212 509.365 145.253C509.543 144.296 509.633 143.351 509.633 142.417C509.633 140.886 509.303 139.556 508.649 138.433C507.993 137.31 506.706 136.747 504.79 136.747C503.983 136.747 503.304 136.788 502.747 136.87C502.192 136.952 501.538 137.077 500.78 137.241L493.444 170.686H482.173L491.32 129.434V129.434Z" fill="black"/>
<path opacity="0.744856" d="M610.768 135.926C610.768 141.461 609.936 146.418 608.272 150.801C606.608 155.184 604.225 158.897 601.124 161.936C598.022 164.977 594.251 167.319 589.815 168.963C585.376 170.606 580.358 171.428 574.76 171.428C572.641 171.428 570.196 171.291 567.422 171.018C564.647 170.743 561.975 170.305 559.402 169.702L571.582 114.725C574.457 114.123 577.217 113.698 579.865 113.452C582.513 113.206 584.896 113.083 587.015 113.083C590.745 113.083 594.087 113.63 597.036 114.726C599.987 115.822 602.483 117.384 604.526 119.41C606.567 121.437 608.12 123.848 609.178 126.642C610.238 129.434 610.768 132.531 610.768 135.926ZM573.172 160.416C573.725 160.471 574.293 160.512 574.871 160.539C575.451 160.568 576.246 160.58 577.256 160.58C580.533 160.58 583.496 160.033 586.143 158.935C588.793 157.841 591.036 156.265 592.877 154.21C594.719 152.157 596.143 149.636 597.15 146.649C598.157 143.662 598.664 140.309 598.664 136.583C598.664 134.665 598.435 132.925 597.982 131.364C597.529 129.803 596.785 128.462 595.752 127.337C594.719 126.216 593.381 125.353 591.742 124.749C590.103 124.145 588.123 123.845 585.803 123.845C584.291 123.845 582.752 123.929 581.19 124.093L573.172 160.416V160.416Z" fill="black"/>
<path opacity="0.744856" d="M647.258 152.033C646.551 155.156 646.352 158.293 646.653 161.443C646.958 164.593 647.536 167.4 648.395 169.867L638.333 171.428C638.03 170.77 637.753 170.141 637.501 169.537C637.247 168.935 636.995 168.25 636.743 167.484C635.333 168.744 633.766 169.785 632.054 170.605C630.339 171.427 628.423 171.837 626.304 171.837C623.783 171.837 621.628 171.357 619.837 170.399C618.046 169.441 616.585 168.153 615.448 166.538C614.315 164.921 613.493 163.032 612.989 160.866C612.487 158.704 612.235 156.387 612.235 153.923C612.235 150.142 612.852 146.581 614.087 143.239C615.323 139.897 617.038 136.981 619.232 134.487C621.427 131.995 624.009 130.038 626.986 128.612C629.963 127.188 633.191 126.475 636.67 126.475C637.123 126.475 637.918 126.504 639.053 126.557C640.188 126.612 641.485 126.735 642.948 126.926C644.411 127.119 645.95 127.434 647.563 127.871C649.176 128.31 650.713 128.912 652.178 129.68L647.258 152.033V152.033ZM639.391 136.912C638.735 136.803 638.143 136.721 637.614 136.666C637.085 136.611 636.442 136.584 635.684 136.584C633.969 136.584 632.368 137.051 630.881 137.98C629.393 138.912 628.092 140.13 626.985 141.638C625.876 143.146 625.005 144.884 624.376 146.855C623.743 148.828 623.429 150.882 623.429 153.019C623.429 155.65 623.833 157.732 624.64 159.265C625.447 160.798 626.935 161.566 629.105 161.566C630.263 161.566 631.308 161.32 632.244 160.828C633.176 160.334 634.174 159.512 635.232 158.361C635.334 156.994 635.496 155.554 635.722 154.047C635.951 152.541 636.189 151.158 636.443 149.897L639.391 136.912V136.912Z" fill="black"/>
<path opacity="0.744856" d="M681.324 127.463H681.299H680.453C678.838 133.27 677.111 138.584 675.271 143.404C673.429 148.226 671.3 152.609 668.878 156.552C668.575 154.581 668.298 152.363 668.046 149.896C667.792 147.431 667.566 144.898 667.366 142.294C667.305 141.542 667.266 140.8 667.212 140.05C667.079 138.206 666.944 136.361 666.835 134.529C666.685 131.955 666.581 129.599 666.534 127.463H654.958C655.362 136.01 656.104 143.68 657.19 150.473C658.245 157.08 659.407 163.053 660.678 168.416C660.528 168.902 660.379 169.391 660.217 169.873C659.783 171.172 653.485 183.344 652.174 184.658L655.787 185.219L662.234 186.221C664.654 184.248 677.123 161.731 678.787 158.772C680.451 155.815 682.064 152.706 683.629 149.446C685.191 146.186 686.693 142.749 688.131 139.132C689.567 135.517 690.99 131.626 692.404 127.464H681.324V127.463Z" fill="black"/>
</g>
<g opacity="0.744856">
<path opacity="0.744856" d="M447.969 110.707H436.68L432.996 127.463C432.189 127.244 431.394 127.08 430.613 126.969C429.83 126.86 428.986 126.805 428.08 126.805C424.549 126.805 421.295 127.518 418.32 128.942C415.343 130.368 412.773 132.311 410.603 134.776C408.435 137.243 406.734 140.131 405.498 143.446C404.262 146.762 403.644 150.282 403.644 154.007C403.644 156.472 403.91 158.788 404.439 160.95C404.968 163.116 405.8 165.007 406.935 166.622C408.07 168.237 409.533 169.511 411.322 170.442C413.113 171.374 415.269 171.838 417.791 171.838C419.91 171.838 421.838 171.428 423.578 170.606C425.318 169.786 426.892 168.745 428.307 167.485C428.559 168.251 428.811 168.936 429.063 169.538C429.315 170.142 429.592 170.77 429.897 171.429L439.956 169.868C439.099 167.401 438.518 164.595 438.218 161.444C437.915 158.294 438.116 155.157 438.823 152.034L447.969 110.707V110.707ZM428.004 149.897C427.75 151.159 427.512 152.542 427.285 154.047C427.058 155.555 426.892 156.994 426.793 158.361C425.734 159.511 424.725 160.334 423.768 160.828C422.809 161.32 421.75 161.566 420.59 161.566C418.42 161.566 416.922 160.814 416.09 159.306C415.256 157.8 414.84 155.732 414.84 153.101C414.84 151.076 415.145 149.089 415.748 147.144C416.353 145.199 417.197 143.46 418.283 141.925C419.367 140.392 420.666 139.171 422.179 138.267C423.691 137.365 425.329 136.912 427.095 136.912C427.65 136.912 428.105 136.912 428.458 136.912C428.81 136.912 429.099 136.926 429.327 136.953C429.554 136.982 429.78 137.023 430.007 137.078C430.236 137.133 430.499 137.187 430.802 137.242L428.004 149.897V149.897Z" fill="black"/>
</g>
<g opacity="0.744856">
<path opacity="0.744856" d="M75.3243 146.621C74.5493 145.732 73.8474 144.773 73.1814 143.787C68.3114 147.473 63.9023 151.137 59.9763 154.615C62.1683 157.81 64.6613 160.785 67.4143 163.496C70.1413 156.875 71.7073 153.043 75.3243 146.621V146.621Z" fill="url(#paint0_linear)"/>
<path opacity="0.744856" d="M70.3734 104.178C78.4574 84.8669 100.85 75.8439 120.391 84.0239C125.848 86.3109 130.504 89.6979 134.209 93.8129C131.07 90.7919 127.336 88.2759 123.068 86.4929C104.783 78.8369 83.8304 87.2799 76.2654 105.348C72.4374 114.493 72.7853 124.342 76.4193 132.838C77.9563 131.774 79.5274 130.713 81.1354 129.66C80.2384 126.83 79.7454 123.824 79.7454 120.701C79.7454 104.269 93.1123 90.9019 109.544 90.9019C120.384 90.9019 129.888 96.7239 135.103 105.402C135.113 105.402 135.118 105.402 135.124 105.402C137.542 104.793 139.99 104.23 142.475 103.732C147.378 102.75 152.243 102.252 156.932 102.252C160.41 102.252 163.747 102.525 166.954 103.022C159.407 78.4789 136.559 60.6379 109.544 60.6379C76.3723 60.6379 49.4824 87.5278 49.4824 120.7C49.4824 130.751 51.9674 140.212 56.3324 148.532C60.3834 144.989 64.9094 141.274 69.8854 137.548C65.8024 127.32 66.0494 114.506 70.3734 104.176V104.178Z" fill="black"/>
<path opacity="0.744856" d="M159.604 116.776C159.604 116.776 163.102 117.905 169.514 117.419C169.387 115.062 169.108 112.745 168.717 110.466C164.992 109.685 161.069 109.255 156.933 109.255C154.773 109.255 152.567 109.376 150.333 109.61C153.576 111.289 156.777 113.598 159.604 116.776Z" fill="url(#paint1_linear)"/>
<g opacity="0.744856">
<path opacity="0.744856" d="M168.717 110.465C164.992 109.684 161.069 109.254 156.933 109.254C154.773 109.254 152.567 109.375 150.333 109.609C148.193 109.834 146.027 110.16 143.85 110.597C115.266 116.32 91.1354 130.191 73.1824 143.786C68.3124 147.472 63.9034 151.136 59.9774 154.614C52.5064 161.233 46.7974 167.173 43.1104 171.266H226.018C220.435 155.852 203.318 117.729 168.717 110.465V110.465Z" fill="black"/>
</g>
</g>
</g>
<path d="M60.8953 54.6475C60.8953 54.6475 68.3912 64.0825 66.6022 54.4185C64.8112 44.7535 50.4753 25.8675 43.2523 30.4385C36.0253 35.0085 39.6783 38.7735 44.2153 41.2025C48.7563 43.6305 57.7013 49.7845 60.8953 54.6475V54.6475Z" fill="url(#paint2_linear)"/>
<path d="M99.0144 39.9885C99.0144 39.9885 97.5243 52.7585 103.485 44.1285C109.44 35.4995 112.923 10.4395 104.03 8.42247C95.1354 6.40347 95.0403 11.9955 96.6223 17.2535C98.2053 22.5105 100.287 33.9115 99.0144 39.9885V39.9885Z" fill="url(#paint3_linear)"/>
<path d="M141.115 44.4165C141.115 44.4165 131.572 56.1155 142.92 51.3385C154.268 46.5565 173.547 23.9485 166.014 16.3315C158.483 8.71747 154.854 14.1945 153.104 20.3995C151.348 26.6065 146.209 39.2035 141.115 44.4165Z" fill="url(#paint4_linear)"/>
<path d="M171.59 74.7505C171.59 74.7505 156.678 78.8905 169.004 81.6095C181.33 84.3245 210.844 76.8225 209.053 65.9885C207.264 55.1555 200.983 57.5915 195.84 61.7475C190.697 65.9015 178.94 73.4035 171.59 74.7505V74.7505Z" fill="url(#paint5_linear)"/>
<path d="M36.8993 83.4165C36.8993 83.4165 46.8114 86.7115 40.9264 80.5485C35.0434 74.3805 15.6764 67.4765 12.6044 74.2235C9.53037 80.9685 13.9633 81.9645 18.4133 81.5725C22.8563 81.1805 32.2723 81.4055 36.8993 83.4165V83.4165Z" fill="url(#paint6_linear)"/>
<path d="M29.8503 115.246C29.8503 115.246 38.2113 114.854 32.0363 111.936C25.8563 109.022 9.38026 109.433 9.02426 115.366C8.66926 121.297 12.2763 120.764 15.4873 119.192C18.6973 117.616 25.8053 115.072 29.8503 115.246Z" fill="url(#paint7_linear)"/>
<path d="M37.1864 143.327C37.1864 143.327 42.1434 139.044 36.9324 140.231C31.7254 141.419 21.7804 149.63 24.4264 153.457C27.0654 157.28 29.0334 155.212 30.2504 152.692C31.4694 150.17 34.6114 145.174 37.1864 143.327Z" fill="url(#paint8_linear)"/>
<path d="M73.0803 143.731C72.3053 142.842 71.6034 141.883 70.9374 140.896C66.0674 144.583 61.6583 148.246 57.7323 151.724C59.9243 154.919 62.4173 157.894 65.1703 160.605C67.8973 153.984 69.4633 150.152 73.0803 143.731V143.731Z" fill="url(#paint9_linear)"/>
<path d="M68.1294 101.288C76.2134 81.9774 98.6063 72.9534 118.147 81.1344C123.604 83.4214 128.26 86.8084 131.965 90.9224C128.826 87.9014 125.092 85.3864 120.824 83.6034C102.539 75.9474 81.5864 84.3904 74.0214 102.458C70.1934 111.602 70.5413 121.451 74.1753 129.948C75.7123 128.883 77.2834 127.822 78.8914 126.769C77.9944 123.94 77.5013 120.933 77.5013 117.811C77.5013 101.379 90.8683 88.0124 107.3 88.0124C118.14 88.0124 127.644 93.8334 132.859 102.512C132.869 102.513 132.874 102.513 132.88 102.514C135.298 101.904 137.746 101.341 140.231 100.843C145.134 99.8614 149.999 99.3644 154.688 99.3644C158.166 99.3644 161.503 99.6364 164.71 100.134C157.163 75.5904 134.315 57.7494 107.3 57.7494C74.1283 57.7494 47.2384 84.6404 47.2384 117.811C47.2384 127.861 49.7234 137.322 54.0884 145.643C58.1394 142.099 62.6654 138.385 67.6414 134.659C63.5584 124.431 63.8054 111.617 68.1294 101.288Z" fill="url(#paint10_linear)"/>
<path d="M157.36 113.885C157.36 113.885 160.858 115.013 167.27 114.527C167.143 112.17 166.864 109.853 166.473 107.575C162.748 106.793 158.825 106.364 154.689 106.364C152.529 106.364 150.323 106.485 148.089 106.718C151.332 108.398 154.533 110.708 157.36 113.885V113.885Z" fill="url(#paint11_linear)"/>
<path d="M166.473 107.575C162.748 106.793 158.825 106.364 154.689 106.364C152.529 106.364 150.323 106.485 148.089 106.718C145.949 106.943 143.783 107.27 141.606 107.706C113.022 113.429 88.8914 127.301 70.9384 140.895C66.0684 144.582 61.6594 148.245 57.7334 151.723C50.2624 158.342 44.5533 164.282 40.8663 168.375H223.774C218.191 152.962 201.074 114.838 166.473 107.575V107.575Z" fill="url(#paint12_linear)"/>
<g opacity="0.21">
<path opacity="0.21" d="M141.931 138.444C198.632 132.886 221.398 164.563 224.672 169.657H40.4183C42.1583 168.575 81.6904 144.35 141.931 138.444Z" fill="url(#paint13_linear)"/>
</g>
<path d="M236.795 87.8634C237.953 87.8634 239.113 87.7673 240.275 87.5743C241.433 87.3833 242.466 87.0414 243.375 86.5474C244.283 86.0554 245.027 85.3564 245.607 84.4514C246.185 83.5494 246.478 82.3854 246.478 80.9594C246.478 79.8634 246.199 78.9184 245.644 78.1234C245.087 77.3304 244.381 76.6034 243.526 75.9474C242.667 75.2894 241.71 74.6874 240.651 74.1384C239.59 73.5914 238.533 72.9883 237.474 72.3293C236.111 71.4543 234.826 70.5204 233.617 69.5364C232.406 68.5504 231.373 67.4404 230.513 66.2084C229.656 64.9744 228.976 63.6054 228.472 62.0984C227.966 60.5924 227.716 58.8523 227.716 56.8813C227.716 54.3613 228.157 52.0204 229.038 49.8544C229.921 47.6904 231.233 45.8153 232.972 44.2253C234.712 42.6373 236.894 41.3894 239.517 40.4874C242.138 39.5834 245.216 39.1324 248.746 39.1324C250.359 39.1324 251.924 39.2824 253.437 39.5834C254.95 39.8844 256.359 40.2554 257.671 40.6924C258.982 41.1314 260.181 41.6374 261.265 42.2124C262.349 42.7884 263.271 43.3514 264.025 43.8984L259.109 53.3474C257.849 52.3084 256.312 51.4294 254.496 50.7184C252.68 50.0074 250.713 49.6504 248.596 49.6504C247.434 49.6504 246.326 49.7614 245.266 49.9784C244.207 50.1994 243.274 50.5684 242.467 51.0874C241.66 51.6084 241.018 52.2784 240.539 53.1014C240.059 53.9234 239.82 54.9393 239.82 56.1423C239.82 57.2403 240.007 58.1564 240.385 58.8964C240.764 59.6344 241.257 60.2794 241.861 60.8264C242.466 61.3754 243.172 61.8694 243.979 62.3064C244.786 62.7434 245.644 63.2104 246.552 63.7024C248.114 64.5794 249.628 65.5103 251.091 66.4963C252.552 67.4823 253.837 68.6194 254.95 69.9064C256.057 71.1954 256.94 72.6584 257.596 74.3024C258.25 75.9474 258.578 77.8904 258.578 80.1364C258.578 83.2594 258.049 85.9724 256.99 88.2734C255.931 90.5744 254.442 92.4924 252.526 94.0254C250.608 95.5604 248.328 96.6974 245.679 97.4354C243.033 98.1754 240.095 98.5444 236.867 98.5444C234.75 98.5444 232.768 98.3533 230.927 97.9703C229.087 97.5853 227.423 97.1344 225.938 96.6154C224.447 96.0944 223.162 95.5334 222.078 94.9294C220.992 94.3274 220.124 93.7794 219.47 93.2864L224.462 83.5054C225.067 83.9444 225.798 84.4094 226.655 84.9034C227.512 85.3954 228.483 85.8624 229.567 86.2994C230.651 86.7384 231.799 87.1084 233.01 87.4084C234.221 87.7124 235.483 87.8634 236.795 87.8634V87.8634Z" fill="url(#paint14_linear)"/>
<path d="M277.909 98.5444C275.235 98.5444 272.915 98.1063 270.95 97.2303C268.983 96.3553 267.356 95.1214 266.069 93.5314C264.784 91.9454 263.811 90.0683 263.159 87.9023C262.503 85.7403 262.173 83.3414 262.173 80.7134C262.173 77.4264 262.667 74.1394 263.65 70.8524C264.633 67.5654 266.084 64.6074 268 61.9764C269.916 59.3474 272.262 57.1994 275.035 55.5254C277.808 53.8554 280.986 53.0194 284.568 53.0194C287.187 53.0194 289.496 53.4584 291.488 54.3334C293.48 55.2104 295.119 56.4423 296.406 58.0323C297.691 59.6223 298.662 61.4974 299.318 63.6614C299.972 65.8264 300.3 68.2214 300.3 70.8514C300.3 74.1384 299.821 77.4254 298.862 80.7124C297.905 83.9994 296.49 86.9584 294.625 89.5874C292.76 92.2184 290.429 94.3683 287.63 96.0383C284.831 97.7083 281.59 98.5444 277.909 98.5444V98.5444ZM283.505 63.3734C281.841 63.3734 280.379 63.8933 279.119 64.9333C277.855 65.9763 276.797 67.2904 275.941 68.8784C275.084 70.4684 274.439 72.2064 274.013 74.0974C273.581 75.9884 273.368 77.7833 273.368 79.4803C273.368 82.2733 273.769 84.4254 274.578 85.9314C275.385 87.4374 276.849 88.1914 278.968 88.1914C280.63 88.1914 282.093 87.6704 283.353 86.6294C284.615 85.5904 285.673 84.2754 286.533 82.6864C287.388 81.0964 288.033 79.3564 288.461 77.4674C288.889 75.5764 289.104 73.7834 289.104 72.0844C289.104 69.2894 288.702 67.1414 287.895 65.6334C287.086 64.1254 285.622 63.3734 283.505 63.3734Z" fill="url(#paint15_linear)"/>
<path d="M340.081 43.4034L351.807 41.4324L348.932 54.1683H363.113L360.843 64.1934H346.739L343.411 79.3154C343.108 80.5754 342.919 81.7534 342.843 82.8484C342.767 83.9434 342.892 84.8894 343.222 85.6844C343.55 86.4774 344.117 87.0943 344.925 87.5323C345.73 87.9713 346.839 88.1904 348.253 88.1904C349.462 88.1904 350.636 88.0673 351.769 87.8193C352.906 87.5733 354.05 87.2314 355.212 86.7924L356.044 96.1614C354.53 96.7654 352.892 97.2844 351.128 97.7224C349.36 98.1614 347.269 98.3804 344.849 98.3804C341.369 98.3804 338.669 97.8184 336.753 96.6964C334.837 95.5734 333.476 94.0384 332.669 92.0924C331.862 90.1494 331.509 87.9164 331.61 85.3954C331.71 82.8754 332.063 80.2174 332.669 77.4244L340.081 43.4034V43.4034Z" fill="url(#paint16_linear)"/>
<path d="M386.159 72.0834C385.198 74.3314 384.128 76.6163 382.944 78.9443C381.758 81.2743 380.546 83.5484 379.311 85.7664C378.075 87.9854 376.877 90.0944 375.719 92.0924C374.557 94.0944 373.526 95.8604 372.617 97.3934H363.84C363.438 95.0924 363.022 92.3544 362.594 89.1764C362.164 85.9984 361.748 82.5334 361.344 78.7804C360.94 75.0284 360.574 71.0554 360.248 66.8644C359.918 62.6744 359.682 58.4413 359.529 54.1683H370.573C370.573 56.1413 370.586 58.2774 370.611 60.5784C370.636 62.8794 370.686 65.2634 370.76 67.7274C370.836 70.1944 370.95 72.7113 371.103 75.2883C371.253 77.8643 371.455 80.4114 371.707 82.9314C372.969 80.6304 374.217 78.2344 375.453 75.7404C376.687 73.2484 377.873 70.7564 379.008 68.2614C380.143 65.7694 381.201 63.3193 382.186 60.9073C383.168 58.4973 384.038 56.2514 384.797 54.1694H394.176C394.176 58.1144 394.238 62.5244 394.365 67.4004C394.49 72.2774 394.806 77.4534 395.31 82.9314C396.673 80.4664 397.931 77.9313 399.093 75.3293C400.253 72.7273 401.322 70.1654 402.307 67.6454C403.289 65.1254 404.172 62.7144 404.953 60.4144C405.736 58.1134 406.429 56.0313 407.034 54.1683H418.989C417.979 56.9083 416.782 59.9904 415.395 63.4144C414.008 66.8374 412.407 70.4383 410.592 74.2203C408.776 77.9993 406.731 81.8633 404.463 85.8083C402.193 89.7513 399.67 93.6154 396.897 97.3944H388.124C387.517 92.9044 387.063 88.6014 386.763 84.4924C386.459 80.3844 386.258 76.2474 386.159 72.0834V72.0834Z" fill="url(#paint17_linear)"/>
<path d="M449.469 78.7404C448.762 81.8634 448.561 85.0004 448.864 88.1504C449.167 91.3004 449.745 94.1074 450.604 96.5724L440.543 98.1344C440.24 97.4764 439.961 96.8474 439.711 96.2434C439.457 95.6414 439.205 94.9564 438.953 94.1884C437.541 95.4504 435.976 96.4894 434.264 97.3114C432.549 98.1334 430.633 98.5433 428.514 98.5433C425.993 98.5433 423.836 98.0633 422.047 97.1053C420.256 96.1483 418.793 94.8594 417.658 93.2444C416.523 91.6274 415.702 89.7364 415.198 87.5724C414.694 85.4084 414.443 83.0934 414.443 80.6294C414.443 76.8484 415.06 73.2874 416.297 69.9454C417.534 66.6034 419.248 63.6863 421.442 61.1943C423.636 58.7023 426.219 56.7434 429.196 55.3174C432.171 53.8934 435.399 53.1804 438.878 53.1804C439.331 53.1804 440.127 53.2093 441.26 53.2623C442.395 53.3193 443.694 53.4424 445.156 53.6334C446.618 53.8244 448.159 54.1394 449.77 54.5764C451.385 55.0154 452.922 55.6193 454.387 56.3873L449.469 78.7404V78.7404ZM441.602 63.6204C440.946 63.5114 440.352 63.4294 439.825 63.3744C439.294 63.3194 438.653 63.2924 437.895 63.2924C436.18 63.2924 434.579 63.7574 433.092 64.6884C431.602 65.6204 430.303 66.8384 429.196 68.3464C428.087 69.8544 427.216 71.5904 426.585 73.5634C425.954 75.5364 425.64 77.5904 425.64 79.7274C425.64 82.3564 426.044 84.4404 426.851 85.9734C427.658 87.5064 429.144 88.2744 431.314 88.2744C432.474 88.2744 433.519 88.0284 434.455 87.5344C435.387 87.0424 436.385 86.2203 437.441 85.0693C437.543 83.7003 437.706 82.2604 437.932 80.7554C438.161 79.2494 438.4 77.8663 438.654 76.6053L441.602 63.6204V63.6204Z" fill="url(#paint18_linear)"/>
<path d="M483.594 64.6874C482.582 64.4154 481.588 64.1533 480.606 63.9073C479.622 63.6613 478.17 63.5383 476.254 63.5383C475.547 63.5383 474.768 63.6064 473.91 63.7434C473.052 63.8804 472.348 64.0303 471.791 64.1943L464.455 97.3944H453.184L462.262 56.4694C464.428 55.7034 466.862 54.9774 469.561 54.2914C472.256 53.6074 475.295 53.2644 478.676 53.2644C479.936 53.2644 481.334 53.3894 482.875 53.6354C484.412 53.8814 485.762 54.2804 486.92 54.8264L483.594 64.6874V64.6874Z" fill="url(#paint19_linear)"/>
<path d="M483.081 80.4664C483.081 76.9604 483.646 73.5624 484.781 70.2754C485.916 66.9884 487.516 64.0714 489.585 61.5244C491.654 58.9774 494.163 56.9224 497.112 55.3604C500.063 53.7994 503.327 53.0184 506.911 53.0184C508.673 53.0184 510.313 53.2933 511.827 53.8403C513.339 54.3893 514.663 55.1824 515.798 56.2234C516.933 57.2644 517.814 58.5394 518.444 60.0454C519.074 61.5514 519.391 63.2644 519.391 65.1814C519.391 68.2494 518.758 70.8514 517.498 72.9884C516.238 75.1234 514.484 76.8634 512.242 78.2054C509.998 79.5494 507.336 80.5214 504.26 81.1234C501.184 81.7274 497.831 82.0273 494.198 82.0273C494.552 84.3283 495.321 85.9593 496.505 86.9183C497.691 87.8773 499.57 88.3564 502.143 88.3564C503.756 88.3564 505.397 88.2064 507.059 87.9034C508.725 87.6044 510.286 87.1513 511.748 86.5483L512.582 96.1633C511.168 96.7673 509.367 97.3133 507.172 97.8083C504.981 98.3003 502.598 98.5464 500.024 98.5464C496.897 98.5464 494.262 98.0664 492.12 97.1084C489.975 96.1514 488.235 94.8484 486.901 93.2064C485.563 91.5614 484.592 89.6444 483.987 87.4524C483.382 85.2604 483.081 82.9314 483.081 80.4664V80.4664ZM505.092 62.7153C502.522 62.7153 500.264 63.7154 498.322 65.7144C496.379 67.7144 495.107 70.3574 494.502 73.6464C497.629 73.5374 500.15 73.2484 502.066 72.7834C503.982 72.3184 505.472 71.7564 506.529 71.0974C507.588 70.4394 508.295 69.7283 508.648 68.9603C509 68.1943 509.177 67.4274 509.177 66.6594C509.178 64.0304 507.817 62.7153 505.092 62.7153V62.7153Z" fill="url(#paint20_linear)"/>
<path d="M318.684 64.1945H318.682L318.51 64.9764L318.684 64.1945Z" fill="url(#paint21_linear)"/>
<path d="M331.92 64.1945L334.19 54.1685H324.331L322.145 64.1945H331.92Z" fill="url(#paint22_linear)"/>
<path d="M336.649 34.4054C334.958 33.8854 332.979 33.6244 330.71 33.6244C324.759 33.6244 320.144 35.2144 316.866 38.3904C313.587 41.5704 311.317 46.0624 310.057 51.8694L302.192 87.6984C301.786 89.6184 301.27 91.6844 300.639 93.9034C300.192 95.4754 299.66 97.0164 299.088 98.5464H310.411C311.696 94.8584 312.918 90.4054 314.068 85.1514L318.455 65.2214L318.51 64.9774L318.682 64.1954L320.897 54.1704H320.874L321.327 52.0334C321.831 49.7324 322.753 47.8164 324.089 46.2814C325.423 44.7484 327.482 43.9805 330.253 43.9805C331.263 43.9805 332.358 44.1034 333.544 44.3494C334.73 44.5954 335.776 44.9664 336.685 45.4584L340.466 35.8434C339.608 35.4054 338.336 34.9264 336.647 34.4054H336.649Z" fill="url(#paint23_linear)"/>
<path d="M260.561 167.863L273.118 110.914H307.085L304.665 121.516H282.498L279.85 133.678H299.444L297.1 144.28H277.506L272.285 167.864H260.561V167.863Z" fill="url(#paint24_linear)"/>
<path d="M329.264 135.156C328.254 134.883 327.26 134.623 326.276 134.377C325.292 134.129 323.842 134.006 321.926 134.006C321.219 134.006 320.438 134.076 319.58 134.211C318.723 134.35 318.018 134.5 317.461 134.664L310.125 167.863H298.854L307.932 126.939C310.1 126.173 312.532 125.447 315.231 124.761C317.928 124.075 320.967 123.734 324.346 123.734C325.606 123.734 327.006 123.857 328.545 124.103C330.082 124.349 331.432 124.748 332.592 125.294L329.264 135.156V135.156Z" fill="url(#paint25_linear)"/>
<path d="M328.75 150.935C328.75 147.429 329.316 144.031 330.451 140.744C331.586 137.457 333.185 134.541 335.256 131.992C337.322 129.445 339.832 127.39 342.781 125.83C345.732 124.268 348.996 123.488 352.58 123.488C354.344 123.488 355.982 123.761 357.496 124.308C359.01 124.857 360.334 125.652 361.471 126.693C362.604 127.734 363.485 129.007 364.117 130.513C364.746 132.021 365.062 133.732 365.062 135.65C365.062 138.718 364.431 141.32 363.169 143.457C361.909 145.594 360.155 147.334 357.911 148.676C355.667 150.018 353.007 150.99 349.931 151.594C346.853 152.196 343.499 152.496 339.869 152.496C340.223 154.797 340.992 156.428 342.178 157.387C343.362 158.346 345.24 158.825 347.812 158.825C349.428 158.825 351.067 158.675 352.729 158.374C354.395 158.073 355.958 157.622 357.42 157.017L358.252 166.632C356.84 167.236 355.037 167.782 352.844 168.277C350.651 168.769 348.268 169.015 345.696 169.015C342.569 169.015 339.934 168.535 337.79 167.577C335.646 166.619 333.907 165.317 332.571 163.675C331.233 162.03 330.264 160.114 329.659 157.923C329.051 155.73 328.75 153.4 328.75 150.935V150.935ZM350.762 133.185C348.192 133.185 345.932 134.185 343.994 136.183C342.051 138.185 340.779 140.828 340.172 144.115C343.299 144.006 345.82 143.717 347.738 143.252C349.652 142.787 351.142 142.225 352.199 141.566C353.26 140.91 353.965 140.197 354.318 139.429C354.67 138.663 354.847 137.896 354.847 137.128C354.848 134.499 353.489 133.185 350.762 133.185V133.185Z" fill="url(#paint26_linear)"/>
<path d="M365.206 150.935C365.206 147.429 365.772 144.031 366.907 140.744C368.042 137.457 369.641 134.541 371.71 131.992C373.778 129.445 376.29 127.39 379.237 125.83C382.188 124.268 385.454 123.488 389.036 123.488C390.8 123.488 392.438 123.761 393.952 124.308C395.466 124.857 396.788 125.652 397.925 126.693C399.058 127.734 399.939 129.007 400.571 130.513C401.2 132.021 401.516 133.732 401.516 135.65C401.516 138.718 400.885 141.32 399.623 143.457C398.363 145.594 396.611 147.334 394.367 148.676C392.123 150.018 389.463 150.99 386.387 151.594C383.309 152.196 379.957 152.496 376.325 152.496C376.679 154.797 377.448 156.428 378.634 157.387C379.818 158.346 381.696 158.825 384.269 158.825C385.882 158.825 387.523 158.675 389.187 158.374C390.851 158.073 392.414 157.622 393.876 157.017L394.708 166.632C393.296 167.236 391.493 167.782 389.3 168.277C387.107 168.769 384.724 169.015 382.152 169.015C379.025 169.015 376.39 168.535 374.248 167.577C372.102 166.62 370.363 165.317 369.027 163.675C367.689 162.03 366.718 160.114 366.113 157.923C365.508 155.732 365.206 153.4 365.206 150.935V150.935ZM387.219 133.185C384.647 133.185 382.389 134.185 380.448 136.183C378.507 138.185 377.233 140.828 376.628 144.115C379.755 144.006 382.276 143.717 384.194 143.252C386.108 142.787 387.598 142.225 388.655 141.566C389.716 140.91 390.421 140.197 390.774 139.429C391.126 138.663 391.305 137.896 391.305 137.128C391.305 134.499 389.942 133.185 387.219 133.185V133.185Z" fill="url(#paint27_linear)"/>
<path d="M458.315 169.013C455.639 169.013 453.321 168.575 451.354 167.699C449.387 166.824 447.76 165.592 446.475 164.002C445.188 162.414 444.215 160.537 443.562 158.373C442.906 156.209 442.579 153.811 442.579 151.182C442.579 147.895 443.071 144.608 444.054 141.321C445.038 138.034 446.488 135.075 448.406 132.446C450.32 129.817 452.666 127.667 455.441 125.995C458.212 124.325 461.39 123.489 464.972 123.489C467.593 123.489 469.9 123.927 471.894 124.803C473.884 125.68 475.523 126.912 476.812 128.5C478.097 130.09 479.066 131.967 479.722 134.129C480.376 136.295 480.706 138.69 480.706 141.32C480.706 144.607 480.226 147.894 479.268 151.181C478.309 154.468 476.897 157.427 475.032 160.056C473.167 162.687 470.833 164.837 468.034 166.507C465.235 168.177 461.995 169.013 458.315 169.013V169.013ZM463.913 133.841C462.247 133.841 460.784 134.362 459.524 135.403C458.262 136.444 457.204 137.758 456.346 139.346C455.489 140.936 454.846 142.674 454.418 144.565C453.988 146.456 453.773 148.251 453.773 149.948C453.773 152.743 454.177 154.893 454.984 156.399C455.791 157.907 457.254 158.659 459.373 158.659C461.037 158.659 462.498 158.138 463.76 157.097C465.02 156.058 466.077 154.743 466.938 153.154C467.793 151.566 468.438 149.826 468.866 147.935C469.294 146.044 469.509 144.251 469.509 142.552C469.509 139.757 469.107 137.609 468.3 136.101C467.493 134.595 466.028 133.841 463.913 133.841Z" fill="url(#paint28_linear)"/>
<path d="M489.297 126.609C490.154 126.336 491.074 126.021 492.059 125.664C493.043 125.309 494.151 124.98 495.387 124.68C496.621 124.379 498.008 124.133 499.547 123.94C501.086 123.749 502.861 123.653 504.881 123.653C507.301 123.653 509.307 123.981 510.895 124.639C512.483 125.295 513.932 126.282 515.245 127.596C517.11 126.446 518.964 125.5 520.806 124.762C522.646 124.022 524.802 123.653 527.273 123.653C529.644 123.653 531.673 123.995 533.363 124.68C535.053 125.365 536.453 126.35 537.562 127.637C538.671 128.926 539.478 130.459 539.982 132.241C540.486 134.02 540.74 135.979 540.74 138.116C540.74 139.102 540.676 140.143 540.551 141.239C540.424 142.335 540.235 143.43 539.983 144.526L534.838 167.864H523.567L528.561 145.018C528.711 144.252 528.875 143.389 529.051 142.43C529.229 141.473 529.317 140.528 529.317 139.594C529.317 138.063 528.989 136.733 528.335 135.61C527.679 134.487 526.392 133.924 524.476 133.924C523.417 133.924 522.408 134.129 521.451 134.541C520.492 134.951 519.635 135.377 518.879 135.814C518.981 136.253 519.031 136.664 519.031 137.046C519.031 137.428 519.031 137.786 519.031 138.114C519.031 139.1 518.967 140.141 518.842 141.237C518.715 142.333 518.526 143.428 518.274 144.524L513.131 167.862H501.86L506.852 145.016C507.004 144.25 507.166 143.387 507.342 142.428C507.52 141.471 507.61 140.526 507.61 139.592C507.61 138.061 507.28 136.731 506.626 135.608C505.97 134.485 504.683 133.922 502.767 133.922C501.96 133.922 501.281 133.963 500.724 134.045C500.169 134.127 499.515 134.252 498.757 134.416L491.421 167.861H480.15L489.297 126.609V126.609Z" fill="url(#paint29_linear)"/>
<path d="M608.745 133.101C608.745 138.636 607.913 143.593 606.249 147.976C604.585 152.359 602.202 156.072 599.101 159.111C595.999 162.152 592.228 164.494 587.792 166.138C583.353 167.781 578.335 168.603 572.737 168.603C570.618 168.603 568.173 168.466 565.399 168.193C562.624 167.918 559.952 167.48 557.379 166.877L569.559 111.9C572.434 111.298 575.194 110.873 577.842 110.627C580.49 110.381 582.873 110.258 584.992 110.258C588.722 110.258 592.064 110.805 595.013 111.901C597.964 112.997 600.46 114.559 602.503 116.585C604.544 118.612 606.097 121.023 607.155 123.817C608.215 126.609 608.745 129.706 608.745 133.101ZM571.149 157.591C571.702 157.646 572.27 157.687 572.848 157.714C573.428 157.743 574.223 157.755 575.233 157.755C578.51 157.755 581.473 157.208 584.12 156.11C586.77 155.016 589.013 153.44 590.854 151.385C592.696 149.332 594.12 146.811 595.127 143.824C596.134 140.837 596.641 137.484 596.641 133.758C596.641 131.84 596.412 130.1 595.959 128.539C595.506 126.978 594.762 125.637 593.729 124.512C592.696 123.391 591.358 122.528 589.719 121.924C588.08 121.32 586.1 121.02 583.78 121.02C582.268 121.02 580.729 121.104 579.167 121.268L571.149 157.591V157.591Z" fill="url(#paint30_linear)"/>
<path d="M645.235 149.208C644.528 152.331 644.329 155.468 644.63 158.618C644.935 161.768 645.513 164.575 646.372 167.042L636.31 168.603C636.007 167.945 635.73 167.316 635.478 166.712C635.224 166.11 634.972 165.425 634.72 164.659C633.31 165.919 631.743 166.96 630.031 167.78C628.316 168.602 626.4 169.012 624.281 169.012C621.76 169.012 619.605 168.532 617.814 167.574C616.023 166.616 614.562 165.328 613.425 163.713C612.292 162.096 611.47 160.207 610.966 158.041C610.464 155.879 610.212 153.562 610.212 151.098C610.212 147.317 610.829 143.756 612.064 140.414C613.3 137.072 615.015 134.156 617.209 131.662C619.404 129.17 621.986 127.213 624.963 125.787C627.94 124.363 631.168 123.65 634.647 123.65C635.1 123.65 635.895 123.679 637.03 123.732C638.165 123.787 639.462 123.91 640.925 124.101C642.388 124.294 643.927 124.609 645.54 125.046C647.153 125.485 648.69 126.087 650.155 126.855L645.235 149.208V149.208ZM637.368 134.087C636.712 133.978 636.12 133.896 635.591 133.841C635.062 133.786 634.419 133.759 633.661 133.759C631.946 133.759 630.345 134.226 628.858 135.155C627.37 136.087 626.069 137.305 624.962 138.813C623.853 140.321 622.982 142.059 622.353 144.03C621.72 146.003 621.406 148.057 621.406 150.194C621.406 152.825 621.81 154.907 622.617 156.44C623.424 157.973 624.912 158.741 627.082 158.741C628.24 158.741 629.285 158.495 630.221 158.003C631.153 157.509 632.151 156.687 633.209 155.536C633.311 154.169 633.473 152.729 633.699 151.222C633.928 149.716 634.166 148.333 634.42 147.072L637.368 134.087V134.087Z" fill="url(#paint31_linear)"/>
<path d="M679.301 124.638H679.276H678.43C676.815 130.445 675.088 135.759 673.248 140.579C671.406 145.401 669.277 149.784 666.855 153.727C666.552 151.756 666.275 149.538 666.023 147.071C665.769 144.606 665.543 142.073 665.343 139.469C665.282 138.717 665.243 137.975 665.189 137.225C665.056 135.381 664.921 133.536 664.812 131.704C664.662 129.13 664.557 126.774 664.51 124.638H652.935C653.339 133.185 654.081 140.855 655.167 147.648C656.222 154.255 657.384 160.228 658.655 165.591C658.505 166.077 658.356 166.566 658.194 167.048C657.76 168.347 651.462 180.519 650.151 181.833L653.764 182.394L660.211 183.396C662.631 181.423 675.1 158.906 676.764 155.947C678.428 152.99 680.041 149.881 681.606 146.621C683.168 143.361 684.67 139.924 686.108 136.307C687.544 132.692 688.967 128.801 690.381 124.639H679.301V124.638Z" fill="url(#paint32_linear)"/>
<path d="M445.946 107.882H434.657L430.973 124.638C430.166 124.419 429.371 124.255 428.59 124.144C427.807 124.035 426.963 123.98 426.057 123.98C422.526 123.98 419.272 124.693 416.297 126.117C413.32 127.543 410.75 129.486 408.58 131.951C406.412 134.418 404.711 137.306 403.475 140.621C402.239 143.937 401.621 147.457 401.621 151.182C401.621 153.647 401.887 155.963 402.416 158.125C402.945 160.291 403.776 162.182 404.911 163.797C406.046 165.412 407.51 166.686 409.299 167.617C411.09 168.549 413.246 169.013 415.768 169.013C417.887 169.013 419.815 168.603 421.555 167.781C423.295 166.961 424.869 165.92 426.284 164.66C426.536 165.426 426.788 166.111 427.04 166.713C427.292 167.317 427.569 167.945 427.874 168.604L437.933 167.043C437.076 164.576 436.495 161.77 436.195 158.619C435.892 155.469 436.093 152.332 436.8 149.209L445.946 107.882V107.882ZM425.981 147.072C425.727 148.334 425.489 149.717 425.262 151.222C425.035 152.73 424.869 154.169 424.77 155.536C423.711 156.686 422.702 157.509 421.745 158.003C420.786 158.495 419.727 158.741 418.567 158.741C416.397 158.741 414.899 157.989 414.067 156.481C413.233 154.975 412.817 152.907 412.817 150.276C412.817 148.251 413.122 146.264 413.725 144.319C414.33 142.374 415.174 140.635 416.26 139.1C417.344 137.567 418.643 136.346 420.156 135.442C421.668 134.54 423.306 134.087 425.072 134.087C425.627 134.087 426.082 134.087 426.435 134.087C426.787 134.087 427.076 134.101 427.304 134.128C427.531 134.157 427.757 134.198 427.984 134.253C428.213 134.308 428.476 134.362 428.779 134.417L425.981 147.072V147.072Z" fill="url(#paint33_linear)"/>
<path d="M334.219 54.1431H324.36L322.174 64.1681H331.949L334.219 54.1431Z" fill="url(#paint34_linear)"/>
<defs>
<filter id="filter0_f" x="0.841166" y="0.48704" width="701.966" height="196.137" filterUnits="userSpaceOnUse" color-interpolation-filters="sRGB">
<feFlood flood-opacity="0" result="BackgroundImageFix"/>
<feBlend mode="normal" in="SourceGraphic" in2="BackgroundImageFix" result="shape"/>
<feGaussianBlur stdDeviation="5.20137" result="effect1_foregroundBlur"/>
</filter>
<linearGradient id="paint0_linear" x1="49.4827" y1="153.642" x2="169.514" y2="153.642" gradientUnits="userSpaceOnUse">
<stop stop-color="#F7EC30"/>
<stop offset="1" stop-color="#FAAE40"/>
</linearGradient>
<linearGradient id="paint1_linear" x1="49.4826" y1="113.397" x2="169.514" y2="113.397" gradientUnits="userSpaceOnUse">
<stop stop-color="#F7EC30"/>
<stop offset="1" stop-color="#FAAE40"/>
</linearGradient>
<linearGradient id="paint2_linear" x1="50.4608" y1="52.5036" x2="58.0114" y2="34.2737" gradientUnits="userSpaceOnUse">
<stop stop-color="#F7EC30"/>
<stop offset="1" stop-color="#FAAE40"/>
</linearGradient>
<linearGradient id="paint3_linear" x1="92.7782" y1="30.4847" x2="112.243" y2="22.468" gradientUnits="userSpaceOnUse">
<stop stop-color="#F7EC30"/>
<stop offset="1" stop-color="#FAAE40"/>
</linearGradient>
<linearGradient id="paint4_linear" x1="140.942" y1="31.0697" x2="165.276" y2="35.4267" gradientUnits="userSpaceOnUse">
<stop stop-color="#F7EC30"/>
<stop offset="1" stop-color="#FAAE40"/>
</linearGradient>
<linearGradient id="paint5_linear" x1="179.349" y1="63.4756" x2="197.131" y2="81.5267" gradientUnits="userSpaceOnUse">
<stop stop-color="#F7EC30"/>
<stop offset="1" stop-color="#FAAE40"/>
</linearGradient>
<linearGradient id="paint6_linear" x1="28.3053" y1="86.8139" x2="25.1347" y2="70.0004" gradientUnits="userSpaceOnUse">
<stop stop-color="#F7EC30"/>
<stop offset="1" stop-color="#FAAE40"/>
</linearGradient>
<linearGradient id="paint7_linear" x1="24.3978" y1="120.263" x2="17.1833" y2="108.597" gradientUnits="userSpaceOnUse">
<stop stop-color="#F7EC30"/>
<stop offset="1" stop-color="#FAAE40"/>
</linearGradient>
<linearGradient id="paint8_linear" x1="36.2521" y1="149.047" x2="26.179" y2="145.352" gradientUnits="userSpaceOnUse">
<stop stop-color="#F7EC30"/>
<stop offset="1" stop-color="#FAAE40"/>
</linearGradient>
<linearGradient id="paint9_linear" x1="47.2387" y1="150.751" x2="167.27" y2="150.751" gradientUnits="userSpaceOnUse">
<stop stop-color="#F7EC30"/>
<stop offset="1" stop-color="#FAAE40"/>
</linearGradient>
<linearGradient id="paint10_linear" x1="47.2388" y1="101.696" x2="167.27" y2="101.696" gradientUnits="userSpaceOnUse">
<stop stop-color="#F7EC30"/>
<stop offset="1" stop-color="#FAAE40"/>
</linearGradient>
<linearGradient id="paint11_linear" x1="47.2386" y1="110.506" x2="167.27" y2="110.506" gradientUnits="userSpaceOnUse">
<stop stop-color="#F7EC30"/>
<stop offset="1" stop-color="#FAAE40"/>
</linearGradient>
<linearGradient id="paint12_linear" x1="227.886" y1="137.371" x2="31.9797" y2="137.371" gradientUnits="userSpaceOnUse">
<stop stop-color="#8BC541"/>
<stop offset="1" stop-color="#39B24A"/>
</linearGradient>
<linearGradient id="paint13_linear" x1="225.095" y1="153.724" x2="40.3512" y2="153.724" gradientUnits="userSpaceOnUse">
<stop stop-color="white"/>
<stop offset="1" stop-color="white" stop-opacity="0"/>
</linearGradient>
<linearGradient id="paint14_linear" x1="239.432" y1="9.85745" x2="240.432" y2="97.8753" gradientUnits="userSpaceOnUse">
<stop stop-color="#F7EC30"/>
<stop offset="1" stop-color="#FAAE40"/>
</linearGradient>
<linearGradient id="paint15_linear" x1="273.061" y1="10.449" x2="273.078" y2="97.5595" gradientUnits="userSpaceOnUse">
<stop stop-color="#F7EC30"/>
<stop offset="1" stop-color="#FAAE40"/>
</linearGradient>
<linearGradient id="paint16_linear" x1="351.555" y1="11.8328" x2="351.089" y2="98.0358" gradientUnits="userSpaceOnUse">
<stop stop-color="#F7EC30"/>
<stop offset="1" stop-color="#FAAE40"/>
</linearGradient>
<linearGradient id="paint17_linear" x1="382.214" y1="13.1707" x2="383.146" y2="97.1052" gradientUnits="userSpaceOnUse">
<stop stop-color="#F7EC30"/>
<stop offset="1" stop-color="#FAAE40"/>
</linearGradient>
<linearGradient id="paint18_linear" x1="435.54" y1="13.4783" x2="436.636" y2="98.4901" gradientUnits="userSpaceOnUse">
<stop stop-color="#F7EC30"/>
<stop offset="1" stop-color="#FAAE40"/>
</linearGradient>
<linearGradient id="paint19_linear" x1="466.681" y1="13.6261" x2="468.091" y2="97.6741" gradientUnits="userSpaceOnUse">
<stop stop-color="#F7EC30"/>
<stop offset="1" stop-color="#FAAE40"/>
</linearGradient>
<linearGradient id="paint20_linear" x1="497.826" y1="12.9449" x2="497.84" y2="98.5808" gradientUnits="userSpaceOnUse">
<stop stop-color="#F7EC30"/>
<stop offset="1" stop-color="#FAAE40"/>
</linearGradient>
<linearGradient id="paint21_linear" x1="314.512" y1="11.6427" x2="316.87" y2="99.6586" gradientUnits="userSpaceOnUse">
<stop stop-color="#F7EC30"/>
<stop offset="1" stop-color="#FAAE40"/>
</linearGradient>
<linearGradient id="paint22_linear" x1="314.513" y1="11.6416" x2="316.873" y2="99.6594" gradientUnits="userSpaceOnUse">
<stop stop-color="#F7EC30"/>
<stop offset="1" stop-color="#FAAE40"/>
</linearGradient>
<linearGradient id="paint23_linear" x1="314.513" y1="11.6415" x2="316.873" y2="99.6593" gradientUnits="userSpaceOnUse">
<stop stop-color="#F7EC30"/>
<stop offset="1" stop-color="#FAAE40"/>
</linearGradient>
<linearGradient id="paint24_linear" x1="389.412" y1="64.2541" x2="388.216" y2="170.42" gradientUnits="userSpaceOnUse">
<stop stop-color="#F7EC30"/>
<stop offset="1" stop-color="#FAAE40"/>
</linearGradient>
<linearGradient id="paint25_linear" x1="389.412" y1="64.2539" x2="388.216" y2="170.42" gradientUnits="userSpaceOnUse">
<stop stop-color="#F7EC30"/>
<stop offset="1" stop-color="#FAAE40"/>
</linearGradient>
<linearGradient id="paint26_linear" x1="389.411" y1="64.254" x2="388.216" y2="170.42" gradientUnits="userSpaceOnUse">
<stop stop-color="#F7EC30"/>
<stop offset="1" stop-color="#FAAE40"/>
</linearGradient>
<linearGradient id="paint27_linear" x1="389.411" y1="64.254" x2="388.216" y2="170.42" gradientUnits="userSpaceOnUse">
<stop stop-color="#F7EC30"/>
<stop offset="1" stop-color="#FAAE40"/>
</linearGradient>
<linearGradient id="paint28_linear" x1="389.412" y1="64.2539" x2="388.216" y2="170.42" gradientUnits="userSpaceOnUse">
<stop stop-color="#F7EC30"/>
<stop offset="1" stop-color="#FAAE40"/>
</linearGradient>
<linearGradient id="paint29_linear" x1="389.411" y1="64.2541" x2="388.216" y2="170.42" gradientUnits="userSpaceOnUse">
<stop stop-color="#F7EC30"/>
<stop offset="1" stop-color="#FAAE40"/>
</linearGradient>
<linearGradient id="paint30_linear" x1="389.412" y1="64.254" x2="388.216" y2="170.42" gradientUnits="userSpaceOnUse">
<stop stop-color="#F7EC30"/>
<stop offset="1" stop-color="#FAAE40"/>
</linearGradient>
<linearGradient id="paint31_linear" x1="389.411" y1="64.2539" x2="388.216" y2="170.42" gradientUnits="userSpaceOnUse">
<stop stop-color="#F7EC30"/>
<stop offset="1" stop-color="#FAAE40"/>
</linearGradient>
<linearGradient id="paint32_linear" x1="389.411" y1="64.254" x2="388.216" y2="170.42" gradientUnits="userSpaceOnUse">
<stop stop-color="#F7EC30"/>
<stop offset="1" stop-color="#FAAE40"/>
</linearGradient>
<linearGradient id="paint33_linear" x1="420.676" y1="83.0966" x2="418.724" y2="168.392" gradientUnits="userSpaceOnUse">
<stop stop-color="#F7EC30"/>
<stop offset="1" stop-color="#FAAE40"/>
</linearGradient>
<linearGradient id="paint34_linear" x1="324.341" y1="53.9308" x2="332.091" y2="64.4309" gradientUnits="userSpaceOnUse">
<stop stop-color="#F69220"/>
<stop offset="0.4724" stop-color="#F05A29"/>
<stop offset="0.4785" stop-color="#EE4037"/>
<stop offset="1" stop-color="#F05A29"/>
</linearGradient>
</defs>
</svg>
